<svg width="624" height="331" viewBox="0 0 624 331" fill="none" xmlns="http://www.w3.org/2000/svg">
<g clip-path="url(#clip0_12_6311)">
<path d="M163.458 66.5469L128.485 232.329C127.211 236.631 126.175 240.375 125.299 243.721C120.359 262.283 119.802 264.275 98.9296 265.071C89.4495 265.39 82.9967 263.956 80.3678 261.008C78.4558 258.858 78.8541 255.91 79.4118 252.883L79.8101 250.732C80.4474 247.226 81.4831 241.809 82.3594 237.826L118.925 66.6265H41.9693L6.12021 236.073C2.45564 253.44 0.304688 268.656 0.304688 276.623C0.304688 295.264 9.5458 309.684 27.6297 319.323C43.961 328.007 58.0616 330.795 86.9799 330.795C87.6969 330.795 88.3342 330.795 89.0512 330.795C130.557 330.635 143.383 330.078 162.183 318.845C184.649 305.143 190.225 285.466 197.953 258.141C200.263 249.537 201.697 244.199 202.733 240.694C204.007 235.994 204.485 234.321 204.884 232.329L239.936 66.5469H163.299H163.458Z" fill="#2D2D2D"/>
<path d="M596.11 77.2992C579.381 68.3768 564.961 66.3055 534.689 65.8275C527.519 65.7478 521.225 65.6682 515.49 65.7478H384.282H384.361C415.351 70.926 422.282 98.8087 422.282 119.681C422.282 142.784 413.359 171.782 402.764 183.174C397.188 189.308 389.062 194.486 380.06 197.832L369.146 201.815L380.219 205.32C380.936 205.559 381.733 205.798 382.529 206.117C394.559 210.26 401.967 221.094 401.967 234.398C401.967 238.541 401.569 243.4 400.852 248.578L394.718 277.576C394.081 279.727 393.443 281.878 392.806 284.029C385.875 304.822 369.305 321.153 349.628 326.491C342.617 328.323 334.81 329.836 326.047 330.713C331.942 330.872 456.219 330.155 456.219 330.155H460.202L475.1 259.652H519.712L504.655 330.155H581.691L617.54 160.629C621.205 143.182 623.356 128.046 623.356 120.079C623.356 101.438 614.115 87.0183 596.031 77.3789L596.11 77.2992ZM545.364 142.863L545.045 144.536C544.408 147.962 543.372 153.698 542.416 157.92L534.052 197.035H489.28L496.37 163.257C497.645 158.956 498.68 155.211 499.557 151.865C504.496 133.304 505.054 131.312 525.926 130.515C535.247 130.117 541.859 131.631 544.488 134.578C546.4 136.729 546.001 139.677 545.444 142.704L545.364 142.863Z" fill="#2D2D2D"/>
<path d="M338.475 121.036L300.475 120.718L290.836 165.091H310.593C327.561 164.772 329.872 165.489 335.209 160.152C339.989 155.372 341.981 143.422 344.052 132.03C345.008 126.932 345.008 121.036 338.475 121.036Z" fill="#2D2D2D"/>
<path d="M322.381 218.468H281.194L270.758 266.506H292.188C310.59 266.107 313.139 267.223 318.955 261.407C324.133 256.229 326.364 243.164 328.515 230.895C329.471 225.319 329.391 218.468 322.301 218.468H322.381Z" fill="#2D2D2D"/>
</g>
<defs>
<clipPath id="clip0_12_6311">
<rect width="623.138" height="330.848" fill="white" transform="translate(0.304688 0.0253906)"/>
</clipPath>
</defs>
</svg>
