<svg width="25" height="25" viewBox="0 0 25 25" fill="none" xmlns="http://www.w3.org/2000/svg">
<g clip-path="url(#clip0_1_4917)">
<path d="M16.6134 3.05566H7.47938C6.9825 3.05566 6.57844 3.45973 6.57844 3.9566V20.1008C6.57844 20.5968 6.9825 21.0004 7.47938 21.0004H16.613C17.1098 21.0004 17.5139 20.5968 17.5139 20.1008V3.9566C17.5139 3.45973 17.1098 3.05566 16.613 3.05566H16.6134ZM16.162 14.8968L15.4537 15.605C14.9747 16.0841 14.3662 16.3279 13.6641 16.3279C13.3664 16.3279 13.0519 16.2843 12.7233 16.1961C10.6519 15.6411 8.43328 13.4221 7.87875 11.3507C7.58344 10.2472 7.78781 9.30363 8.46984 8.6216L9.17813 7.91332C9.30422 7.78535 9.48563 7.71926 9.67359 7.73332C9.84188 7.74598 10.0027 7.82004 10.1264 7.94238L11.2852 9.10254C11.4197 9.23566 11.4975 9.41848 11.498 9.60363C11.4984 9.77473 11.4342 9.93363 11.3166 10.0513L10.4794 10.8885C10.342 11.0258 10.3162 11.2466 10.4025 11.5447C10.6561 12.4208 11.7614 13.5041 12.5925 13.6911C13.0228 13.7882 13.1892 13.6002 13.2441 13.5388C13.2492 13.5332 13.2544 13.5275 13.2595 13.5224L14.0236 12.7583C14.1403 12.6411 14.2987 12.5769 14.4694 12.5769H14.4713C14.6559 12.5774 14.8392 12.6557 14.9738 12.7916L16.1311 13.9475C16.4006 14.2199 16.4137 14.6455 16.1616 14.8977L16.162 14.8968ZM14.4825 13.3593L15.5616 14.4374L14.9236 15.0754C14.4347 15.5643 13.7597 15.6979 12.9173 15.4724C11.1042 14.9863 9.08813 12.9697 8.6025 11.1571C8.37703 10.3152 8.51063 9.64066 8.99953 9.15176L9.6375 8.51379L10.7156 9.59285L9.95016 10.3583C9.61453 10.6939 9.51984 11.1889 9.68344 11.7529C10.0163 12.9013 11.3245 14.1735 12.4284 14.4219C12.9802 14.5461 13.4658 14.4121 13.7972 14.0446L14.482 13.3593H14.4825ZM5.20875 14.0436C5.35828 14.1866 5.36344 14.4238 5.22047 14.5733C5.14687 14.6502 5.04844 14.6891 4.94953 14.6891C4.85625 14.6891 4.76297 14.6544 4.69031 14.585L4.59891 14.4974C4.59891 14.4974 4.59469 14.4932 4.59281 14.4913C3.21141 13.1085 3.21141 10.8599 4.59281 9.47848C4.73906 9.33223 4.97625 9.33223 5.1225 9.47848C5.26875 9.62473 5.26875 9.86191 5.1225 10.0082C4.03406 11.0966 4.03313 12.868 5.11969 13.9588L5.20828 14.0436H5.20875ZM4.02187 15.0744C4.04672 15.1007 4.07297 15.125 4.09875 15.1504L3.58219 15.6932C3.54937 15.6618 3.51656 15.6304 3.48328 15.5957C2.51906 14.6305 1.98797 13.3485 1.98797 11.9844C1.98797 10.6204 2.52 9.33551 3.48609 8.37035C3.63234 8.2241 3.86953 8.2241 4.01578 8.37035C4.16203 8.5166 4.16203 8.75379 4.01578 8.90004C3.19125 9.72363 2.7375 10.8191 2.7375 11.9839C2.7375 13.1488 3.19172 14.2443 4.01578 15.0679L4.02187 15.0739V15.0744ZM23.6709 11.9844C23.6709 13.7666 22.9772 15.4424 21.7177 16.7038C21.683 16.7399 21.6488 16.7727 21.6183 16.8018C21.5456 16.8711 21.4523 16.9054 21.3595 16.9054C21.2606 16.9054 21.1622 16.8664 21.0886 16.7896C20.9456 16.64 20.9512 16.4029 21.1008 16.2599C21.127 16.2346 21.1537 16.2093 21.1791 16.183C21.1809 16.1811 21.1828 16.1788 21.1852 16.1769C22.305 15.0571 22.9219 13.5679 22.9219 11.9844C22.9219 10.401 22.305 8.91223 21.1852 7.79191C21.0389 7.64566 21.0389 7.40848 21.1852 7.26223C21.3314 7.11598 21.5686 7.11598 21.7148 7.26223C22.9762 8.52363 23.6714 10.2008 23.6714 11.9844H23.6709ZM2.99203 16.2594C3.14156 16.4024 3.14719 16.6396 3.00422 16.7891C2.93062 16.866 2.83219 16.9049 2.73328 16.9049C2.64047 16.9049 2.54719 16.8707 2.47453 16.8013C2.44406 16.7722 2.40984 16.7394 2.37516 16.7033C1.11516 15.4419 0.421875 13.7661 0.421875 11.9839C0.421875 10.2018 1.11656 8.52316 2.37844 7.26176C2.52469 7.11551 2.76188 7.11551 2.90813 7.26176C3.05438 7.40801 3.05438 7.64519 2.90813 7.79144C1.78828 8.91129 1.17141 10.4005 1.17141 11.9839C1.17141 13.5674 1.78828 15.0561 2.90813 16.1764C2.91 16.1783 2.91187 16.1807 2.91422 16.1825C2.93953 16.2088 2.96625 16.2341 2.9925 16.2594H2.99203ZM19.5 14.4913C19.5 14.4913 19.4958 14.4955 19.4939 14.4974L19.4025 14.585C19.3298 14.6544 19.2366 14.6891 19.1433 14.6891C19.0448 14.6891 18.9459 14.6502 18.8723 14.5733C18.7294 14.4238 18.7345 14.1866 18.8841 14.0436L18.9727 13.9588C20.0592 12.868 20.0583 11.0966 18.9698 10.0082C18.8236 9.86191 18.8236 9.62473 18.9698 9.47848C19.1161 9.33223 19.3533 9.33223 19.4995 9.47848C20.8809 10.8599 20.8809 13.1085 19.4995 14.4913H19.5ZM22.1048 11.9844C22.1048 13.3485 21.5737 14.6305 20.6095 15.5957C20.5762 15.6304 20.5434 15.6618 20.512 15.6918C20.4394 15.7616 20.3456 15.7963 20.2519 15.7963C20.1534 15.7963 20.055 15.7579 19.9814 15.681C19.8384 15.5314 19.8427 15.2952 19.9922 15.1518C20.0198 15.1255 20.0461 15.1007 20.0709 15.0744C20.0728 15.0725 20.0747 15.0702 20.077 15.0683C20.9016 14.2447 21.3553 13.1493 21.3553 11.9844C21.3553 10.8196 20.9011 9.7241 20.077 8.90051C19.9308 8.75426 19.9308 8.51707 20.077 8.37082C20.2233 8.22457 20.4605 8.22457 20.6067 8.37082C21.5728 9.33598 22.1048 10.6199 22.1048 11.9849V11.9844Z" fill="#2D2D2D"/>
<circle cx="12.0479" cy="19.4346" r="0.661133" fill="#E5E51F"/>
</g>
<defs>
<clipPath id="clip0_1_4917">
<rect width="24" height="24" fill="white" transform="translate(0.046875 0.0283203)"/>
</clipPath>
</defs>
</svg>
