<svg width="112" height="65" viewBox="0 0 112 65" fill="none" xmlns="http://www.w3.org/2000/svg">
<g clip-path="url(#clip0_1_33672)">
<path d="M29.6429 8.49451L23.3892 38.1387C23.1613 38.908 22.9761 39.5775 22.8194 40.1758C21.9362 43.4949 21.8365 43.851 18.1043 43.9935C16.4091 44.0505 15.2552 43.7941 14.7852 43.267C14.4433 42.8824 14.5145 42.3553 14.6142 41.814L14.6854 41.4294C14.7994 40.8026 14.9846 39.8339 15.1413 39.1216L21.6798 8.50875H7.91898L1.50865 38.8082C0.85337 41.9137 0.46875 44.6345 0.46875 46.059C0.46875 49.3924 2.12119 51.9708 5.35485 53.6945C8.27511 55.2472 10.7965 55.7458 15.9675 55.7458C16.0957 55.7458 16.2097 55.7458 16.3379 55.7458C23.7596 55.7173 26.0531 55.6176 29.415 53.609C33.4321 51.1588 34.4293 47.6403 35.811 42.7542C36.2241 41.2157 36.4806 40.2613 36.6657 39.6345C36.8937 38.794 36.9791 38.4949 37.0504 38.1387L43.3182 8.49451H29.6144H29.6429Z" fill="white"/>
<path d="M107.01 10.4175C104.018 8.82206 101.44 8.45169 96.0269 8.36622C94.7448 8.35197 93.6194 8.33772 92.5938 8.35197H69.132H69.1462C74.6876 9.27791 75.9269 14.2637 75.9269 17.996C75.9269 22.1271 74.3315 27.3123 72.4369 29.3494C71.4397 30.4462 69.9867 31.3722 68.377 31.9705L66.4254 32.6827L68.4055 33.3095C68.5337 33.3523 68.6761 33.395 68.8186 33.452C70.9696 34.1927 72.2944 36.1301 72.2944 38.509C72.2944 39.2498 72.2232 40.1187 72.095 41.0447L70.9981 46.2299C70.8841 46.6145 70.7702 46.9991 70.6562 47.3838C69.4169 51.1017 66.4539 54.022 62.9353 54.9764C61.6817 55.3041 60.2857 55.5747 58.7188 55.7314C59.7729 55.7599 81.9954 55.6317 81.9954 55.6317H82.7076L85.3715 43.0247H93.3488L90.6564 55.6317H104.432L110.842 25.318C111.497 22.1983 111.882 19.4917 111.882 18.0672C111.882 14.7338 110.229 12.1554 106.996 10.4318L107.01 10.4175ZM97.9357 22.1413L97.8787 22.4404C97.7648 23.053 97.5796 24.0786 97.4087 24.8336L95.9129 31.828H87.9071L89.1749 25.7881C89.4029 25.0188 89.588 24.3493 89.7447 23.751C90.6279 20.4319 90.7277 20.0757 94.4599 19.9333C96.1266 19.8621 97.3089 20.1327 97.779 20.6598C98.1209 21.0444 98.0497 21.5715 97.95 22.1128L97.9357 22.1413Z" fill="white"/>
<path d="M60.9405 18.239L54.1455 18.182L52.4219 26.1166H55.9547C58.9889 26.0596 59.402 26.1878 60.3564 25.2334C61.2111 24.3787 61.5673 22.2419 61.9377 20.2048C62.1086 19.2931 62.1086 18.239 60.9405 18.239Z" fill="white"/>
<path d="M58.059 35.6605H50.6942L48.8281 44.2504H52.6601C55.9507 44.1791 56.4066 44.3786 57.4465 43.3387C58.3724 42.4127 58.7713 40.0765 59.1559 37.8828C59.3268 36.8856 59.3126 35.6605 58.0448 35.6605H58.059Z" fill="white"/>
</g>
<path d="M109.647 59.8408H111.415V60.7848H111.184L110.073 62.7765V63.3751H110.361V64.3191H108.174V63.3751H108.462V62.7765L107.316 60.7848H107.086V59.8408H109.314V60.7848H109.112L109.452 61.677H109.509L109.849 60.7848H109.647V59.8408Z" fill="white"/>
<path d="M105.985 60.7848H105.697V63.3751H105.985V64.3191H103.809V63.3751H104.085V61.3604L103.107 64.3191H102.255L101.247 61.3892V63.3751H101.524V64.3191H99.6357V63.3751H99.9235V60.7848H99.6357V59.8408H102.272L102.871 61.6367L103.446 59.8408H105.985V60.7848Z" fill="white"/>
<path d="M94.606 64.3191V63.3751H94.8938V60.7848H94.606V59.8408H98.4914V61.5792H97.202V60.7848H96.5055V61.6943H97.012V62.3505H96.5055V63.3751H97.202V62.4656H98.4914V64.3191H94.606Z" fill="white"/>
<path d="M89.061 63.3751H89.3488V60.7906H89.061V59.8408H91.398C92.0389 59.8408 92.5473 60.0173 92.9234 60.3704C93.3033 60.7196 93.4933 61.2895 93.4933 62.08C93.4933 62.8705 93.3033 63.4423 92.9234 63.7953C92.5473 64.1445 92.0389 64.3191 91.398 64.3191H89.061V63.3751ZM91.2944 63.3751C91.4249 63.3751 91.5227 63.3406 91.588 63.2715C91.6532 63.2024 91.6858 63.095 91.6858 62.9491V61.2108C91.6858 60.9268 91.5554 60.7848 91.2944 60.7848H90.9606V63.3751H91.2944Z" fill="white"/>
<path d="M87.7281 63.3751H87.9583V64.3191H85.7019V63.3751H86.0473L85.9552 62.9146H85.1724L85.0803 63.3751H85.4256V64.3191H83.457V63.3751H83.6873L84.6601 59.8408H86.7553L87.7281 63.3751ZM85.299 62.3045H85.8286L85.5926 61.159H85.535L85.299 62.3045Z" fill="white"/>
<path d="M80.6625 64.3996C79.9372 64.3996 79.3769 64.2154 78.9817 63.847C78.5902 63.4786 78.3945 62.8896 78.3945 62.0799C78.3945 60.5334 79.1467 59.7601 80.6509 59.7601C81.0155 59.7601 81.3532 59.8043 81.664 59.8925C81.9787 59.9808 82.2128 60.0786 82.3663 60.1861V61.6251H80.9848V61.2107C80.9848 61.0649 80.9522 60.9574 80.8869 60.8883C80.8217 60.8193 80.7239 60.7847 80.5934 60.7847C80.4629 60.7847 80.3651 60.8193 80.2998 60.8883C80.2346 60.9574 80.202 61.0649 80.202 61.2107V62.949C80.202 63.0949 80.2346 63.2023 80.2998 63.2714C80.3651 63.3405 80.4629 63.375 80.5934 63.375C80.7239 63.375 80.8217 63.3405 80.8869 63.2714C80.9522 63.2023 80.9848 63.0949 80.9848 62.949V62.4828H82.3663V63.9736C82.2089 64.0811 81.9749 64.1789 81.664 64.2672C81.357 64.3555 81.0232 64.3996 80.6625 64.3996Z" fill="white"/>
<path d="M77.2706 63.3751H77.5008V64.3191H75.2444V63.3751H75.5898L75.4977 62.9146H74.7148L74.6227 63.3751H74.9681V64.3191H72.9995V63.3751H73.2298L74.2025 59.8408H76.2978L77.2706 63.3751ZM74.8415 62.3045H75.371L75.135 61.159H75.0775L74.8415 62.3045Z" fill="white"/>
<path d="M66.6691 62.88H66.3813V64.0312C66.2125 64.1271 65.9649 64.2135 65.6388 64.2902C65.3164 64.3631 64.9672 64.3996 64.5911 64.3996C63.8735 64.3996 63.3114 64.2116 62.9046 63.8355C62.4978 63.4556 62.2944 62.8704 62.2944 62.0799C62.2944 61.2702 62.4959 60.6811 62.8988 60.3127C63.3056 59.9443 63.8851 59.7601 64.6372 59.7601C65.0017 59.7601 65.3433 59.7985 65.6618 59.8753C65.9803 59.952 66.2201 60.0383 66.3813 60.1343V61.51H64.9423V61.2395C64.9423 61.0783 64.9077 60.9632 64.8387 60.8941C64.7734 60.8212 64.6679 60.7847 64.5221 60.7847C64.3762 60.7847 64.2688 60.8212 64.1997 60.8941C64.1345 60.9632 64.1019 61.0783 64.1019 61.2395V62.9203C64.1019 63.0814 64.1345 63.1985 64.1997 63.2714C64.2688 63.3405 64.3762 63.375 64.5221 63.375C64.6679 63.375 64.7734 63.3405 64.8387 63.2714C64.9077 63.1985 64.9423 63.0814 64.9423 62.9203V62.88H64.6314V62.0223H66.6691V62.88Z" fill="white"/>
<path d="M59.3014 59.8408H61.1894V60.7848H60.9016V64.3191H59.2841L57.5976 61.7231V63.3751H57.8739V64.3191H55.9858V63.3751H56.2736V60.7848H55.9858V59.8408H58.0638L59.5777 62.149V60.7848H59.3014V59.8408Z" fill="white"/>
<path d="M52.646 64.3191V63.3751H52.9338V60.7848H52.646V59.8408H54.8333V60.7848H54.5455V63.3751H54.8333V64.3191H52.646Z" fill="white"/>
<path d="M51.2899 63.3751H51.5316V64.3191H49.3558V63.3751H49.5918L49.258 62.9031H49.2004L48.8665 63.3751H49.1025V64.3191H47.0879V63.3751H47.3872L48.4924 62.1318L47.3412 60.7848H47.0994V59.8408H49.258V60.7848H49.0392L49.3558 61.2568H49.4134L49.73 60.7848H49.5112V59.8408H51.5086V60.7848H51.2093L50.1214 62.0109L51.2899 63.3751Z" fill="white"/>
<path d="M43.9503 64.3996C43.2481 64.3996 42.7051 64.2154 42.3213 63.847C41.9414 63.4786 41.7515 62.8896 41.7515 62.0799C41.7515 61.2702 41.9414 60.6811 42.3213 60.3127C42.7051 59.9443 43.2481 59.7601 43.9503 59.7601C44.6526 59.7601 45.1936 59.9443 45.5735 60.3127C45.9573 60.6811 46.1492 61.2702 46.1492 62.0799C46.1492 62.8896 45.9573 63.4786 45.5735 63.847C45.1936 64.2154 44.6526 64.3996 43.9503 64.3996ZM43.9503 63.375C44.0808 63.375 44.1786 63.3405 44.2439 63.2714C44.3091 63.2023 44.3417 63.0949 44.3417 62.949V61.2107C44.3417 61.0649 44.3091 60.9574 44.2439 60.8883C44.1786 60.8193 44.0808 60.7847 43.9503 60.7847C43.8198 60.7847 43.722 60.8193 43.6568 60.8883C43.5915 60.9574 43.5589 61.0649 43.5589 61.2107V62.949C43.5589 63.0987 43.5915 63.2081 43.6568 63.2771C43.722 63.3424 43.8198 63.375 43.9503 63.375Z" fill="white"/>
<path d="M36.4019 63.3751H36.6897V60.7848H36.4019V59.8408H39.0439C39.5236 59.8408 39.8978 59.9387 40.1664 60.1344C40.435 60.3301 40.5693 60.6102 40.5693 60.9748C40.5693 61.2012 40.5156 61.3931 40.4081 61.5504C40.3007 61.7039 40.1741 61.8209 40.0282 61.9015C39.8862 61.9783 39.7481 62.0301 39.6138 62.0569V62.1145C39.8862 62.1414 40.1318 62.2277 40.3506 62.3735C40.5693 62.5193 40.6787 62.7803 40.6787 63.1564C40.6787 63.5593 40.5271 63.8548 40.2239 64.0428C39.9208 64.227 39.5274 64.3191 39.0439 64.3191H36.4019V63.3751ZM38.6122 61.7288C38.7235 61.7288 38.806 61.7001 38.8597 61.6425C38.9173 61.5811 38.9461 61.4871 38.9461 61.3604V61.1532C38.9461 61.0266 38.9173 60.9345 38.8597 60.8769C38.806 60.8155 38.7235 60.7848 38.6122 60.7848H38.3014V61.7288H38.6122ZM38.6525 63.3751C38.7638 63.3751 38.8463 63.3463 38.9 63.2888C38.9576 63.2274 38.9864 63.1333 38.9864 63.0067V62.7534C38.9864 62.6268 38.9576 62.5347 38.9 62.4771C38.8463 62.4157 38.7638 62.385 38.6525 62.385H38.3014V63.3751H38.6525Z" fill="white"/>
<path d="M25.5596 63.3751H25.8474V60.7906H25.5596V59.8408H27.8966C28.5374 59.8408 29.0459 60.0173 29.4219 60.3704C29.8019 60.7196 29.9918 61.2895 29.9918 62.08C29.9918 62.8705 29.8019 63.4423 29.4219 63.7953C29.0459 64.1445 28.5374 64.3191 27.8966 64.3191H25.5596V63.3751ZM27.793 63.3751C27.9234 63.3751 28.0213 63.3406 28.0865 63.2715C28.1518 63.2024 28.1844 63.095 28.1844 62.9491V61.2108C28.1844 60.9268 28.0539 60.7848 27.793 60.7848H27.4591V63.3751H27.793Z" fill="white"/>
<path d="M20.5366 64.3191V63.3751H20.8244V60.7848H20.5366V59.8408H24.422V61.5792H23.1326V60.7848H22.4362V61.6943H22.9427V62.3505H22.4362V63.3751H23.1326V62.4656H24.422V64.3191H20.5366Z" fill="white"/>
<path d="M19.418 61.2338H18.4279V60.7848H18.0595V63.3751H18.4625V64.3191H16.0449V63.3751H16.4478V60.7848H16.0794V61.2338H15.0894V59.8408H19.418V61.2338Z" fill="white"/>
<path d="M11.7881 64.3191V63.3751H12.0759V60.7848H11.7881V59.8408H13.9754V60.7848H13.6876V63.3751H13.9754V64.3191H11.7881Z" fill="white"/>
<path d="M8.75646 59.8408H10.6445V60.7848H10.3567V64.3191H8.73919L7.05264 61.7231V63.3751H7.32894V64.3191H5.44092V63.3751H5.72873V60.7848H5.44092V59.8408H7.51889L9.03276 62.149V60.7848H8.75646V59.8408Z" fill="white"/>
<path d="M2.17582 64.3997C1.57335 64.3997 1.1071 64.2673 0.77708 64.0025C0.450898 63.7377 0.287807 63.3079 0.287807 62.7131L0.287807 60.7848H0L0 59.8408H2.12978V60.7848H1.89953V63.0067C1.89953 63.1333 1.92639 63.2274 1.98012 63.2888C2.03768 63.3463 2.1221 63.3751 2.23339 63.3751C2.34467 63.3751 2.42718 63.3463 2.4809 63.2888C2.53846 63.2274 2.56724 63.1333 2.56724 63.0067V60.7848H2.337V59.8408H4.31136V60.7848H4.02355V62.7131C4.02355 63.3079 3.8643 63.7377 3.54579 64.0025C3.22728 64.2673 2.77063 64.3997 2.17582 64.3997Z" fill="white"/>
<defs>
<clipPath id="clip0_1_33672">
<rect width="111.426" height="59.1602" fill="white" transform="translate(0 0.599976)"/>
</clipPath>
</defs>
</svg>
