<svg width="256" height="225" viewBox="0 0 256 225" fill="none" xmlns="http://www.w3.org/2000/svg">
<path d="M71.2033 221.975C68.9185 226.544 59.0173 221.975 52.9243 224.26C59.0173 218.167 63.5871 220.452 71.2033 221.975ZM34.6453 142.004C36.9302 144.289 34.6454 151.905 43.7848 151.144C47.593 147.336 47.593 144.289 48.3546 139.719C52.1627 132.865 55.2092 126.772 50.6395 115.347C41.5 117.632 32.3605 115.347 20.9361 115.347C14.0815 115.347 9.51173 117.632 2.65711 115.347C4.18036 112.301 4.18036 108.493 0.372236 108.493C0.372236 103.923 2.65711 100.876 2.65711 97.0683C4.18036 91.737 1.89549 91.737 0.372236 87.9288C0.372236 87.9288 4.18036 85.6439 2.65711 83.3591C2.65711 83.3591 -0.389389 78.7893 0.372236 76.5044C1.89549 76.5044 2.65711 76.5044 2.65711 76.5044C4.18036 74.2196 -0.389389 68.8882 0.372236 67.365C1.89549 67.365 2.65711 67.365 2.65711 67.365C4.18036 64.3185 0.372236 64.3185 0.372236 62.7952C1.89549 62.0336 6.46523 51.3708 2.65711 49.086C-0.389388 46.0395 4.18036 46.8011 2.65711 42.2314C2.65711 39.9465 0.372236 37.6616 0.372236 33.0918C1.89549 33.0918 2.65711 30.807 2.65711 30.807C2.65711 26.2372 -0.389389 21.6675 0.372236 16.3361C4.18036 16.3361 1.89549 11.7664 2.65711 11.7664C6.46523 9.48147 11.7966 11.7664 9.51173 2.62684C15.6047 4.91173 14.0815 1.1036 20.9361 4.91172C23.221 2.62683 23.221 -1.18128 27.7907 0.341995C25.5058 10.2431 36.1686 -4.22779 36.9302 4.91172C46.0697 3.38849 38.4535 5.67335 39.2151 11.7664C45.3081 11.7664 46.0697 7.95823 48.3546 4.91172C52.9243 7.95823 59.779 3.38849 71.2033 4.91172C75.7731 4.91172 77.2963 5.67335 80.3428 7.19662C86.4358 7.19662 95.5753 0.341991 96.3369 9.48146C98.6218 5.67334 104.715 5.67335 109.285 7.19662C112.331 7.95824 113.854 14.8129 116.139 19.3826C118.424 23.1907 116.901 30.8069 116.139 39.9465C116.139 41.4697 116.901 44.5162 116.139 44.5162C113.854 48.3243 116.139 46.8011 116.139 53.6557C116.901 60.5103 116.139 67.365 116.139 71.9347C116.901 76.5044 118.424 78.7893 118.424 83.3591C118.424 87.9288 116.901 89.4521 116.139 92.4986C114.616 103.161 116.901 114.586 116.139 124.487C116.139 131.341 112.331 142.004 109.285 151.144C109.285 153.429 109.285 157.998 107 160.283C107 161.045 103.192 161.045 103.192 162.568C100.907 165.615 103.192 172.469 96.3369 171.708C97.8602 179.324 91.0056 181.609 84.9126 187.702C81.8661 190.748 78.0579 196.841 75.7731 199.126C72.7266 201.411 64.3487 199.126 64.3487 205.981C59.0173 205.981 54.4476 205.981 48.3546 205.981C45.3081 213.597 59.0173 204.457 50.6395 212.835C49.8778 213.597 47.593 215.12 43.7848 215.12C39.2151 222.736 24.7442 220.452 14.0815 224.26C6.46523 215.882 11.7966 195.318 9.51173 180.847C18.6512 174.754 30.0756 172.469 34.6453 162.568C34.6453 151.905 27.0291 147.336 34.6453 142.004ZM43.7848 210.55C39.2151 208.266 33.8837 215.882 39.2151 217.405C40.7383 213.597 43.0232 212.835 43.7848 210.55ZM107 11.7664C100.145 18.621 116.139 18.621 107 11.7664V11.7664ZM14.0815 42.2314C11.7966 37.6616 20.1745 34.6151 14.0815 33.0918C14.0815 35.3767 8.75011 42.2314 14.0815 42.2314ZM23.221 217.405C24.7442 215.12 23.221 203.696 20.9361 210.55C20.1745 218.167 22.4594 221.975 23.221 217.405ZM208.296 221.975C206.011 226.544 196.11 221.975 190.017 224.26C196.11 218.167 200.68 220.452 208.296 221.975ZM171.738 142.004C174.023 144.289 171.738 151.905 180.877 151.144C184.685 147.336 184.685 144.289 185.447 139.719C189.255 132.865 192.302 126.772 187.732 115.347C178.592 117.632 169.453 115.347 158.029 115.347C151.174 115.347 146.604 117.632 139.75 115.347C141.273 112.301 141.273 108.493 137.465 108.493C137.465 103.923 139.75 100.876 139.75 97.0683C141.273 91.737 138.988 91.737 137.465 87.9288C137.465 87.9288 141.273 85.6439 139.75 83.3591C139.75 83.3591 136.703 78.7893 137.465 76.5044C138.988 76.5044 139.75 76.5044 139.75 76.5044C141.273 74.2196 136.703 68.8882 137.465 67.365C138.988 67.365 139.75 67.365 139.75 67.365C141.273 64.3185 137.465 64.3185 137.465 62.7952C138.988 62.0336 143.558 51.3708 139.75 49.086C136.703 46.0395 141.273 46.8011 139.75 42.2314C139.75 39.9465 137.465 37.6616 137.465 33.0918C138.988 33.0918 139.75 30.807 139.75 30.807C139.75 26.2372 136.703 21.6675 137.465 16.3361C141.273 16.3361 138.988 11.7664 139.75 11.7664C143.558 9.48147 148.889 11.7664 146.604 2.62684C152.697 4.91173 151.174 1.1036 158.029 4.91172C160.313 2.62683 160.313 -1.18128 164.883 0.341995C162.598 10.2431 173.261 -4.22779 174.023 4.91172C183.162 3.38849 175.546 5.67335 176.308 11.7664C182.401 11.7664 183.162 7.95823 185.447 4.91172C190.017 7.95823 196.871 3.38849 208.296 4.91172C212.866 4.91172 214.389 5.67335 217.435 7.19662C223.528 7.19662 232.668 0.341991 233.429 9.48146C235.714 5.67334 241.807 5.67335 246.377 7.19662C249.423 7.95824 250.947 14.8129 253.232 19.3826C255.516 23.1907 253.993 30.8069 253.232 39.9465C253.232 41.4697 253.993 44.5162 253.232 44.5162C250.947 48.3243 253.232 46.8011 253.232 53.6557C253.993 60.5103 253.232 67.365 253.232 71.9347C253.993 76.5044 255.516 78.7893 255.516 83.3591C255.516 87.9288 253.993 89.4521 253.232 92.4986C251.708 103.161 253.993 114.586 253.232 124.487C253.232 131.341 249.423 142.004 246.377 151.144C246.377 153.429 246.377 157.998 244.092 160.283C244.092 161.045 240.284 161.045 240.284 162.568C237.999 165.615 240.284 172.469 233.429 171.708C234.953 179.324 228.098 181.609 222.005 187.702C218.959 190.748 215.15 196.841 212.866 199.126C209.819 201.411 201.441 199.126 201.441 205.981C196.11 205.981 191.54 205.981 185.447 205.981C182.401 213.597 196.11 204.457 187.732 212.835C186.97 213.597 184.685 215.12 180.877 215.12C176.308 222.736 161.837 220.452 151.174 224.26C143.558 215.882 148.889 195.318 146.604 180.847C155.744 174.754 167.168 172.469 171.738 162.568C171.738 151.905 164.122 147.336 171.738 142.004ZM180.877 210.55C176.308 208.266 170.976 215.882 176.308 217.405C177.831 213.597 180.116 212.835 180.877 210.55ZM244.092 11.7664C237.238 18.621 253.232 18.621 244.092 11.7664V11.7664ZM151.174 42.2314C148.889 37.6616 157.267 34.6151 151.174 33.0918C151.174 35.3767 145.843 42.2314 151.174 42.2314ZM160.313 217.405C161.837 215.12 160.313 203.696 158.029 210.55C157.267 218.167 159.552 221.975 160.313 217.405Z" fill="#F2F302"/>
</svg>
