<svg width="1013" height="432" viewBox="0 0 1013 432" fill="none" xmlns="http://www.w3.org/2000/svg">
<g clip-path="url(#clip0_1_34520)">
<path d="M265.119 2.16894L208.32 271.413C206.25 278.4 204.568 284.481 203.145 289.915C195.123 320.061 194.217 323.295 160.319 324.589C144.923 325.107 134.443 322.778 130.173 317.991C127.068 314.497 127.715 309.71 128.62 304.794L129.267 301.3C130.302 295.608 131.984 286.81 133.408 280.341L192.794 2.29832L67.8109 2.29832L9.58894 277.494C3.63736 305.699 0.144047 330.411 0.144047 343.35C0.144047 373.625 15.1524 397.043 44.5221 412.698C71.0454 426.801 93.9461 431.329 140.912 431.329C142.076 431.329 143.111 431.329 144.276 431.329C211.684 431.071 232.514 430.165 263.048 411.922C299.534 389.668 308.591 357.711 321.141 313.333C324.893 299.36 327.222 290.691 328.904 284.998C330.974 277.365 331.75 274.648 332.397 271.413L389.325 2.16894L264.86 2.16894L265.119 2.16894Z" fill="#E5E51F"/>
<path d="M967.784 19.6304C940.613 5.1396 917.195 1.77567 868.03 0.999378C856.386 0.869996 846.164 0.740612 836.849 0.869994L623.757 0.869996L623.886 0.869996C674.216 9.27983 685.472 54.5636 685.472 88.4617C685.472 125.982 670.981 173.078 653.773 191.579C644.716 201.542 631.519 209.951 616.899 215.386L599.174 221.855L617.158 227.547C618.322 227.936 619.616 228.324 620.91 228.841C640.447 235.569 652.479 253.165 652.479 274.772C652.479 281.5 651.832 289.392 650.668 297.802L640.706 344.897C639.671 348.39 638.636 351.884 637.6 355.377C626.344 389.146 599.433 415.669 567.475 424.338C556.09 427.313 543.41 429.772 529.178 431.195C538.753 431.454 740.589 430.289 740.589 430.289L747.058 430.289L771.252 315.786L843.706 315.786L819.253 430.289L944.365 430.289L1002.59 154.964C1008.54 126.629 1012.03 102.047 1012.03 89.1086C1012.03 58.8332 997.024 35.415 967.654 19.7598L967.784 19.6304ZM885.367 126.112L884.85 128.829C883.815 134.392 882.133 143.708 880.58 150.565L866.995 214.092L794.282 214.092L805.797 159.234C807.867 152.247 809.549 146.166 810.972 140.732C818.994 110.586 819.9 107.351 853.798 106.058C868.936 105.411 879.674 107.869 883.944 112.656C887.049 116.149 886.402 120.937 885.497 125.853L885.367 126.112Z" fill="#E5E51F"/>
<path d="M549.366 90.664L487.651 90.1465L471.996 162.212L504.082 162.212C531.641 161.695 535.393 162.859 544.061 154.191C551.824 146.428 555.059 127.02 558.423 108.519C559.975 100.238 559.975 90.664 549.366 90.664Z" fill="#E5E51F"/>
<path d="M523.226 248.9L456.336 248.9L439.387 326.918L474.19 326.918C504.078 326.271 508.218 328.082 517.663 318.637C526.073 310.228 529.695 289.009 533.189 269.084C534.741 260.027 534.612 248.9 523.097 248.9L523.226 248.9Z" fill="#E5E51F"/>
</g>
<defs>
<clipPath id="clip0_1_34520">
<rect width="1012.03" height="430.483" fill="white" transform="translate(0.146973 0.972656)"/>
</clipPath>
</defs>
</svg>
