<svg width="1001" height="426" viewBox="0 0 1001 426" fill="none" xmlns="http://www.w3.org/2000/svg">
<g clip-path="url(#clip0_1_37922)">
<path d="M261.791 1.70972L205.611 268.02C203.563 274.931 201.899 280.945 200.492 286.32C192.558 316.138 191.662 319.337 158.133 320.617C142.904 321.129 132.538 318.825 128.315 314.09C125.244 310.635 125.884 305.9 126.78 301.037L127.42 297.582C128.443 291.951 130.107 283.249 131.515 276.85L190.254 1.83768H66.6327L9.04511 274.035C3.15838 301.933 -0.296875 326.376 -0.296875 339.173C-0.296875 369.118 14.5479 392.281 43.5977 407.766C69.832 421.715 92.4831 426.194 138.937 426.194C140.089 426.194 141.113 426.194 142.264 426.194C208.938 425.938 229.542 425.042 259.743 406.998C295.831 384.987 304.789 353.378 317.203 309.483C320.914 295.662 323.217 287.088 324.881 281.457C326.929 273.907 327.696 271.22 328.336 268.02L384.644 1.70972H261.535H261.791Z" fill="white"/>
<path d="M956.811 18.9877C929.937 4.65476 906.774 1.32748 858.144 0.559645C846.627 0.431672 836.517 0.303697 827.303 0.431669H616.532H616.66C666.441 8.74987 677.575 53.5402 677.575 87.069C677.575 124.181 663.242 170.763 646.222 189.063C637.264 198.917 624.211 207.235 609.75 212.61L592.217 219.008L610.006 224.639C611.157 225.023 612.437 225.407 613.717 225.919C633.041 232.574 644.942 249.978 644.942 271.349C644.942 278.004 644.302 285.81 643.15 294.128L633.297 340.71C632.273 344.165 631.249 347.621 630.225 351.076C619.092 384.477 592.473 410.711 560.864 419.285C549.603 422.229 537.061 424.66 522.984 426.068C532.454 426.324 732.091 425.172 732.091 425.172H738.49L762.421 311.916H834.085L809.898 425.172H933.648L991.235 152.847C997.122 124.821 1000.58 100.506 1000.58 87.7088C1000.58 57.7633 985.733 34.6003 956.683 19.1156L956.811 18.9877ZM875.292 124.309L874.78 126.996C873.757 132.499 872.093 141.713 870.557 148.496L857.12 211.33H785.2L796.589 157.07C798.637 150.159 800.301 144.145 801.708 138.77C809.643 108.952 810.538 105.753 844.067 104.473C859.04 103.833 869.662 106.265 873.885 111C876.956 114.455 876.316 119.19 875.42 124.053L875.292 124.309Z" fill="white"/>
<path d="M542.949 89.2431L481.907 88.7312L466.422 160.012H498.159C525.417 159.5 529.128 160.652 537.702 152.078C545.381 144.399 548.58 125.203 551.907 106.903C553.443 98.713 553.443 89.2431 542.949 89.2431Z" fill="white"/>
<path d="M517.098 245.755H450.936L434.172 322.922H468.596C498.158 322.282 502.253 324.074 511.595 314.732C519.913 306.414 523.497 285.426 526.952 265.718C528.488 256.76 528.36 245.755 516.97 245.755H517.098Z" fill="white"/>
</g>
<defs>
<clipPath id="clip0_1_37922">
<rect width="1001" height="426" fill="white"/>
</clipPath>
</defs>
</svg>
