<svg width="930" height="40" viewBox="0 0 930 40" fill="none" xmlns="http://www.w3.org/2000/svg">
<path d="M915.141 1.37598L929.877 1.37598V9.24798H927.957L918.693 25.856V30.848H921.093V38.72H902.853V30.848H905.253V25.856L895.701 9.24798H893.781V1.37598L912.357 1.37598V9.24798H910.677L913.509 16.688H913.989L916.821 9.24798H915.141V1.37598Z" fill="white"/>
<path d="M884.585 9.24798H882.185V30.848H884.585V38.72H866.441V30.848H868.745V14.048L860.585 38.72H853.481L845.081 14.288V30.848H847.385V38.72H831.641V30.848H834.041V9.24798H831.641V1.37598L853.625 1.37598L858.617 16.352L863.417 1.37598L884.585 1.37598V9.24798Z" fill="white"/>
<path d="M789.742 38.72V30.848H792.142V9.24798H789.742V1.37598L822.142 1.37598V15.872L811.39 15.872V9.24798H805.582V16.832H809.806V22.304H805.582V30.848H811.39V23.264H822.142V38.72H789.742Z" fill="white"/>
<path d="M743.484 30.848H745.884V9.29598H743.484V1.37598L762.972 1.37598C768.316 1.37598 772.556 2.84798 775.692 5.79198C778.86 8.70398 780.444 13.456 780.444 20.048C780.444 26.64 778.86 31.408 775.692 34.352C772.556 37.264 768.316 38.72 762.972 38.72H743.484V30.848ZM762.108 30.848C763.196 30.848 764.012 30.56 764.556 29.984C765.1 29.408 765.372 28.512 765.372 27.296V12.8C765.372 10.432 764.284 9.24798 762.108 9.24798H759.324V30.848H762.108Z" fill="white"/>
<path d="M732.366 30.848H734.286V38.72H715.47V30.848H718.35L717.582 27.008H711.054L710.286 30.848H713.166V38.72H696.75V30.848H698.67L706.782 1.37598L724.254 1.37598L732.366 30.848ZM712.11 21.92H716.526L714.558 12.368H714.078L712.11 21.92Z" fill="white"/>
<path d="M673.435 39.3921C667.387 39.3921 662.715 37.8561 659.419 34.7841C656.155 31.7121 654.523 26.8001 654.523 20.0481C654.523 7.1521 660.795 0.704102 673.339 0.704102C676.379 0.704102 679.195 1.0721 681.787 1.8081C684.411 2.5441 686.363 3.3601 687.643 4.2561V16.2561H676.123V12.8001C676.123 11.5841 675.851 10.6881 675.307 10.1121C674.763 9.5361 673.947 9.2481 672.859 9.2481C671.771 9.2481 670.955 9.5361 670.411 10.1121C669.867 10.6881 669.595 11.5841 669.595 12.8001V27.2961C669.595 28.5121 669.867 29.4081 670.411 29.9841C670.955 30.5601 671.771 30.8481 672.859 30.8481C673.947 30.8481 674.763 30.5601 675.307 29.9841C675.851 29.4081 676.123 28.5121 676.123 27.2961V23.4081H687.643V35.8401C686.331 36.7361 684.379 37.5521 681.787 38.2881C679.227 39.0241 676.443 39.3921 673.435 39.3921Z" fill="white"/>
<path d="M645.147 30.848H647.067V38.72H628.251V30.848H631.131L630.363 27.008H623.835L623.067 30.848H625.947V38.72H609.531V30.848H611.451L619.563 1.37598L637.035 1.37598L645.147 30.848ZM624.891 21.92H629.307L627.339 12.368H626.859L624.891 21.92Z" fill="white"/>
<path d="M556.738 26.7201H554.338V36.3201C552.93 37.1201 550.866 37.8401 548.146 38.4801C545.458 39.0881 542.546 39.3921 539.41 39.3921C533.426 39.3921 528.738 37.8241 525.346 34.6881C521.954 31.5201 520.258 26.6401 520.258 20.0481C520.258 13.2961 521.938 8.3841 525.298 5.3121C528.69 2.2401 533.522 0.704102 539.794 0.704102C542.834 0.704102 545.682 1.0241 548.338 1.6641C550.994 2.3041 552.994 3.0241 554.338 3.8241V15.2961L542.338 15.2961V13.0401C542.338 11.6961 542.05 10.7361 541.474 10.1601C540.93 9.5521 540.05 9.2481 538.834 9.2481C537.618 9.2481 536.722 9.5521 536.146 10.1601C535.602 10.7361 535.33 11.6961 535.33 13.0401V27.0561C535.33 28.4001 535.602 29.3761 536.146 29.9841C536.722 30.5601 537.618 30.8481 538.834 30.8481C540.05 30.8481 540.93 30.5601 541.474 29.9841C542.05 29.3761 542.338 28.4001 542.338 27.0561V26.7201H539.746V19.5681H556.738V26.7201Z" fill="white"/>
<path d="M495.281 1.37598L511.025 1.37598V9.24798H508.625V38.72H495.137L481.073 17.072V30.848H483.377V38.72H467.633V30.848H470.033V9.24798H467.633V1.37598L484.961 1.37598L497.585 20.624V9.24798H495.281V1.37598Z" fill="white"/>
<path d="M439.797 38.72V30.848H442.197V9.24798H439.797V1.37598L458.037 1.37598V9.24798H455.637V30.848H458.037V38.72H439.797Z" fill="white"/>
<path d="M428.478 30.848H430.493V38.72H412.35V30.848H414.318L411.534 26.912H411.053L408.27 30.848H410.238V38.72H393.438V30.848H395.934L405.15 20.48L395.549 9.24798H393.534V1.37598L411.534 1.37598V9.24798H409.71L412.35 13.184H412.829L415.47 9.24798H413.646V1.37598L430.302 1.37598V9.24798H427.806L418.733 19.472L428.478 30.848Z" fill="white"/>
<path d="M367.25 39.3921C361.394 39.3921 356.866 37.8561 353.666 34.7841C350.498 31.7121 348.914 26.8001 348.914 20.0481C348.914 13.2961 350.498 8.3841 353.666 5.3121C356.866 2.2401 361.394 0.704102 367.25 0.704102C373.106 0.704102 377.618 2.2401 380.786 5.3121C383.986 8.3841 385.586 13.2961 385.586 20.0481C385.586 26.8001 383.986 31.7121 380.786 34.7841C377.618 37.8561 373.106 39.3921 367.25 39.3921ZM367.25 30.8481C368.338 30.8481 369.154 30.5601 369.698 29.9841C370.242 29.4081 370.514 28.5121 370.514 27.2961V12.8001C370.514 11.5841 370.242 10.6881 369.698 10.1121C369.154 9.5361 368.338 9.2481 367.25 9.2481C366.162 9.2481 365.346 9.5361 364.802 10.1121C364.258 10.6881 363.986 11.5841 363.986 12.8001V27.2961C363.986 28.5441 364.258 29.4561 364.802 30.0321C365.346 30.5761 366.162 30.8481 367.25 30.8481Z" fill="white"/>
<path d="M304.297 30.848H306.697V9.24798H304.297V1.37598L326.329 1.37598C330.329 1.37598 333.449 2.19198 335.689 3.82398C337.929 5.45598 339.049 7.79198 339.049 10.832C339.049 12.72 338.601 14.32 337.705 15.632C336.809 16.912 335.753 17.888 334.537 18.56C333.353 19.2 332.201 19.632 331.081 19.856V20.336C333.353 20.56 335.401 21.28 337.225 22.496C339.049 23.712 339.961 25.888 339.961 29.024C339.961 32.384 338.697 34.848 336.169 36.416C333.641 37.952 330.361 38.72 326.329 38.72H304.297V30.848ZM322.729 17.12C323.657 17.12 324.345 16.88 324.793 16.4C325.273 15.888 325.513 15.104 325.513 14.048V12.32C325.513 11.264 325.273 10.496 324.793 10.016C324.345 9.50398 323.657 9.24798 322.729 9.24798H320.137V17.12H322.729ZM323.065 30.848C323.993 30.848 324.681 30.608 325.129 30.128C325.609 29.616 325.849 28.832 325.849 27.776V25.664C325.849 24.608 325.609 23.84 325.129 23.36C324.681 22.848 323.993 22.592 323.065 22.592H320.137V30.848H323.065Z" fill="white"/>
<path d="M213.906 30.848H216.306V9.29598H213.906V1.37598L233.394 1.37598C238.738 1.37598 242.978 2.84798 246.114 5.79198C249.282 8.70398 250.866 13.456 250.866 20.048C250.866 26.64 249.282 31.408 246.114 34.352C242.978 37.264 238.738 38.72 233.394 38.72H213.906V30.848ZM232.53 30.848C233.618 30.848 234.434 30.56 234.978 29.984C235.522 29.408 235.794 28.512 235.794 27.296V12.8C235.794 10.432 234.706 9.24798 232.53 9.24798H229.746V30.848H232.53Z" fill="white"/>
<path d="M172 38.72V30.848H174.4V9.24798H172V1.37598L204.4 1.37598V15.872L193.648 15.872V9.24798H187.84V16.832H192.064V22.304H187.84V30.848H193.648V23.264H204.4V38.72H172Z" fill="white"/>
<path d="M162.674 12.992L154.418 12.992V9.24798H151.346V30.848H154.706V38.72H134.546V30.848H137.906V9.24798H134.834V12.992H126.578V1.37598L162.674 1.37598V12.992Z" fill="white"/>
<path d="M99.0312 38.72V30.848H101.431V9.24798H99.0312V1.37598L117.271 1.37598V9.24798H114.871V30.848H117.271V38.72H99.0312Z" fill="white"/>
<path d="M73.773 1.37598L89.517 1.37598V9.24798H87.117V38.72H73.629L59.565 17.072V30.848H61.869V38.72H46.125V30.848H48.525V9.24798H46.125V1.37598L63.453 1.37598L76.077 20.624V9.24798H73.773V1.37598Z" fill="white"/>
<path d="M18.894 39.392C13.87 39.392 9.982 38.288 7.23 36.08C4.51 33.872 3.15 30.288 3.15 25.328L3.15 9.24798H0.75L0.75 1.37598L18.51 1.37598V9.24798H16.59V27.776C16.59 28.832 16.814 29.616 17.262 30.128C17.742 30.608 18.446 30.848 19.374 30.848C20.302 30.848 20.99 30.608 21.438 30.128C21.918 29.616 22.158 28.832 22.158 27.776V9.24798H20.238V1.37598L36.702 1.37598V9.24798H34.302V25.328C34.302 30.288 32.974 33.872 30.318 36.08C27.662 38.288 23.854 39.392 18.894 39.392Z" fill="white"/>
</svg>
